<svg xmlns="http://www.w3.org/2000/svg" viewBox="0 0 1600 1000" width="1600" height="1000" role="img" preserveAspectRatio="xMidYMid slice">
  <defs>
    <linearGradient id="bg" x1="0" y1="0" x2="1" y2="1">
      <stop offset="0" stop-color="#eef4ff"/>
      <stop offset="1" stop-color="#dbe8ff"/>
    </linearGradient>
    <linearGradient id="blue" x1="0" y1="0" x2="0" y2="1">
      <stop offset="0" stop-color="#4f9dff"/>
      <stop offset="1" stop-color="#0f5dd8"/>
    </linearGradient>
    <radialGradient id="ground" cx="0.5" cy="0.5" r="0.5">
      <stop offset="0" stop-color="#0b3aa8" stop-opacity="0.16"/>
      <stop offset="1" stop-color="#0b3aa8" stop-opacity="0"/>
    </radialGradient>
  </defs>
  <rect width="1600" height="1000" fill="url(#bg)"/>
  <circle cx="1312" cy="200" r="620" fill="#146ef0" opacity="0.08"/>
  <circle cx="208" cy="920" r="340" fill="#0f5dd8" opacity="0.07"/>
  <ellipse cx="960" cy="880" rx="544" ry="130" fill="url(#ground)"/>
  <g><path d="M560 250 H980 L1100 370 V810 H560 Z" fill="#ffffff" stroke="#dbe8ff" stroke-width="4"/><path d="M980 250 V370 H1100 Z" fill="#dbe8ff"/><rect x="624.8" y="429.20000000000005" width="334.8" height="26" rx="13" fill="#dbe8ff"/><rect x="624.8" y="502.00000000000006" width="421.2" height="26" rx="13" fill="#dbe8ff"/><rect x="624.8" y="574.8000000000001" width="421.2" height="26" rx="13" fill="#dbe8ff"/><path d="M1120 340 L1400 470 L1120 600 L1180 470 Z" fill="url(#blue)"/><path d="M1120 340 L1180 470 L1300 508" fill="none" stroke="#ffffff" stroke-width="8" opacity="0.7"/><circle cx="760" cy="780" r="96" fill="#146ef0"/><path d="M712 780 h96 M760 732 v96" stroke="#ffffff" stroke-width="21.12" stroke-linecap="round"/></g>
</svg>
